<?xml version="1.0" encoding="iso-8859-1"?>
<!-- Uploaded to: SVG Repo, www.svgrepo.com, Generator: SVG Repo Mixer Tools -->
<svg version="1.1" id="Layer_1" xmlns="http://www.w3.org/2000/svg" xmlns:xlink="http://www.w3.org/1999/xlink" 
	 viewBox="0 0 512 512" xml:space="preserve">
<path style="fill:#A0BF7C;" d="M381.144,191.974c-22.451,0-42.325-6.869-57.472-19.857l-11.802-10.129l-0.102,0.068l-6.63-14.438
	c-5.316-11.571-7.356-24.567-5.897-37.564c6.468-58.308,57.66-67.354,102.818-75.324c18.441-3.26,35.601-6.289,48.154-12.484
	l14.438-7.117l3.678,15.676c8.474,36.122,9.489,90.999-15.565,126.763C436.994,180.079,412.23,191.974,381.144,191.974z"/>
<rect x="179.202" y="345.6" style="fill:#BCB0AD;" width="102.4" height="153.6"/>
<path style="fill:#9A8984;" d="M281.602,499.2V358.4c0-7.057-5.743-12.8-12.8-12.8h-76.8c-7.057,0-12.8,5.743-12.8,12.8v140.8
	h-115.2V320l-27.051-18.355l193.451-138.18l193.852,138.47L396.802,320v179.2H281.602z"/>
<path style="fill:#573A32;" d="M381.144,204.774c35.934,0,63.565-13.397,82.099-39.876c32.973-47.053,24.764-120.977,11.836-156.527
	c-1.562-4.25-5.291-7.373-9.839-8.201L463.081,0c-3.772,0-7.322,1.621-9.754,4.446c-8.286,9.677-31.223,13.722-53.478,17.647
	c-44.646,7.902-105.813,18.671-113.365,86.528c-2.039,18.347,1.647,36.028,10.684,51.447c-6.528,7.253-11.844,15.241-16.452,23.612
	l-35.447-25.318c-4.437-3.174-9.651-4.762-14.865-4.762s-10.428,1.587-14.882,4.77l-179.2,128
	c-9.054,6.468-12.894,18.048-9.498,28.646c3.396,10.598,13.252,17.784,24.38,17.784v153.6c0,14.14,11.46,25.6,25.6,25.6h307.2
	c14.14,0,25.6-11.46,25.6-25.6V332.8c11.127,0,20.983-7.185,24.38-17.783c3.396-10.598-0.444-22.178-9.498-28.646L301.69,198.665
	c3.311-6.519,7.074-12.791,11.767-18.509C330.985,196.096,354.682,204.774,381.144,204.774z M268.802,486.4h-76.8v-128h76.8V486.4z
	 M409.602,307.2h-25.6v179.2h-89.6v-128c0-14.14-11.46-25.6-25.6-25.6h-76.8c-14.14,0-25.6,11.46-25.6,25.6v128h-89.6V307.2h-25.6
	l179.2-128L409.602,307.2z M311.955,111.471c5.41-48.802,47.616-56.252,92.339-64.154c19.098-3.379,37.325-6.579,51.575-13.602
	c8.61,36.702,7.91,85.803-13.585,116.497c-13.449,19.2-34.014,28.954-61.141,28.954c-19.328,0-36.463-5.897-49.135-16.777
	c9.66-7.296,20.659-13.278,32.777-17.749l2.697-1.05c22.059-7.697,42.684-7.501,44.297-7.125l2.748,0.299
	c6.025,0,11.162-4.096,12.501-10.001c1.263-5.7-1.502-11.375-6.409-14.046c12.015-10.846,21.513-23.45,28.373-37.649
	c1.476-3.072,1.673-6.554,0.546-9.779s-3.447-5.828-6.528-7.296c-6.11-2.901-14.123-0.154-17.084,5.948
	c-10.197,21.129-27.221,37.299-51.797,49.126c1.51-10.675-0.154-21.274-4.975-30.925c-3.046-6.153-11.187-8.678-17.135-5.751
	c-3.072,1.527-5.359,4.147-6.451,7.398c-1.101,3.277-0.836,6.75,0.691,9.779c7.697,15.428-2.022,29.5-5.786,34.074
	c-8.422,4.198-16.358,9.097-23.697,14.626C312.408,132.779,310.744,122.3,311.955,111.471z"/>
</svg>